<svg width="560" height="360" viewBox="0 0 560 360" fill="none" xmlns="http://www.w3.org/2000/svg">
  <rect width="560" height="360" rx="28" fill="#FFFFFF"/>
  <rect x="46" y="48" width="468" height="264" rx="24" fill="#F8FAFC" stroke="#E2E8F0" stroke-width="2"/>
  <rect x="82" y="84" width="146" height="188" rx="20" fill="#EFF6FF"/>
  <rect x="102" y="110" width="78" height="12" rx="6" fill="#2563EB"/>
  <rect x="102" y="134" width="102" height="10" rx="5" fill="#93C5FD"/>
  <rect x="102" y="166" width="106" height="34" rx="12" fill="white"/>
  <rect x="116" y="179" width="48" height="8" rx="4" fill="#64748B"/>
  <rect x="102" y="214" width="106" height="34" rx="12" fill="white"/>
  <rect x="116" y="227" width="62" height="8" rx="4" fill="#64748B"/>
  <rect x="258" y="84" width="220" height="60" rx="16" fill="#F0FDF4"/>
  <circle cx="290" cy="114" r="13" fill="#16A34A"/>
  <path d="M284 114L289 119L298 109" stroke="white" stroke-width="3.5" stroke-linecap="round" stroke-linejoin="round"/>
  <rect x="314" y="104" width="94" height="10" rx="5" fill="#166534"/>
  <rect x="314" y="122" width="128" height="8" rx="4" fill="#86EFAC"/>
  <rect x="258" y="160" width="220" height="52" rx="16" fill="#FFF7ED"/>
  <circle cx="290" cy="186" r="13" fill="#D97706"/>
  <rect x="314" y="176" width="88" height="10" rx="5" fill="#9A3412"/>
  <rect x="314" y="194" width="138" height="8" rx="4" fill="#FDBA74"/>
  <rect x="258" y="228" width="220" height="44" rx="16" fill="#F5F3FF"/>
  <circle cx="290" cy="250" r="13" fill="#7C3AED"/>
  <rect x="314" y="240" width="78" height="10" rx="5" fill="#6D28D9"/>
  <rect x="314" y="258" width="116" height="8" rx="4" fill="#C4B5FD"/>
</svg>
